<?xml version="1.0" encoding="utf-8"?>
<!-- Generator: Adobe Illustrator 16.0.0, SVG Export Plug-In . SVG Version: 6.00 Build 0)  -->
<!DOCTYPE svg PUBLIC "-//W3C//DTD SVG 1.1//EN" "http://www.w3.org/Graphics/SVG/1.1/DTD/svg11.dtd">
<svg version="1.1" id="Capa_1" xmlns="http://www.w3.org/2000/svg" xmlns:xlink="http://www.w3.org/1999/xlink" x="0px" y="0px"
	 width="841.889px" height="595.281px" viewBox="0 0 841.889 595.281" enable-background="new 0 0 841.889 595.281"
	 xml:space="preserve">
<g>
	<path fill="#333333" d="M574.427,213.096c-17.76,0-32.205,14.447-32.205,32.205s14.445,32.205,32.205,32.205
		c17.758,0,32.204-14.447,32.204-32.205S592.185,213.096,574.427,213.096z M574.427,264.966c-10.843,0-19.665-8.823-19.665-19.666
		c0-10.843,8.822-19.664,19.665-19.664s19.663,8.821,19.663,19.664C594.09,256.143,585.27,264.966,574.427,264.966z"/>
	<circle fill="#333333" cx="574.428" cy="245.301" r="8.677"/>
	<path fill="#333333" d="M266.448,421.277c-17.759,0-32.205,14.446-32.205,32.206c0,17.758,14.446,32.203,32.205,32.203
		c17.758,0,32.205-14.445,32.205-32.203C298.652,435.723,284.205,421.277,266.448,421.277z M266.448,473.146
		c-10.844,0-19.665-8.82-19.665-19.663c0-10.844,8.821-19.666,19.665-19.666c10.843,0,19.664,8.822,19.664,19.666
		C286.112,464.326,277.291,473.146,266.448,473.146z"/>
	<circle fill="#333333" cx="266.448" cy="453.482" r="8.677"/>
	<path fill="#333333" d="M355.716,88.308c-17.758,0-32.205,14.448-32.205,32.206c0,17.758,14.447,32.205,32.205,32.205
		c17.758,0,32.204-14.446,32.204-32.205C387.92,102.756,373.474,88.308,355.716,88.308z M355.716,140.179
		c-10.843,0-19.665-8.822-19.665-19.665c0-10.842,8.822-19.666,19.665-19.666s19.665,8.823,19.665,19.666
		C375.381,131.357,366.559,140.179,355.716,140.179z"/>
	<circle fill="#333333" cx="355.716" cy="120.514" r="8.677"/>
	<path fill="#333333" d="M498.225,416.912h-64.929c-3.464,0-6.271,2.806-6.271,6.27c0,3.463,2.808,6.271,6.271,6.271h64.929
		c3.464,0,6.271-2.808,6.271-6.271C504.495,419.718,501.687,416.912,498.225,416.912z"/>
	<path fill="#333333" d="M498.225,448.022h-64.929c-3.464,0-6.271,2.808-6.271,6.27c0,3.463,2.808,6.271,6.271,6.271h64.929
		c3.464,0,6.271-2.808,6.271-6.271C504.495,450.83,501.687,448.022,498.225,448.022z"/>
	<path fill="#333333" d="M498.225,479.135h-64.929c-3.464,0-6.271,2.807-6.271,6.27c0,3.465,2.808,6.271,6.271,6.271h64.929
		c3.464,0,6.271-2.806,6.271-6.271C504.495,481.941,501.687,479.135,498.225,479.135z"/>
	<path fill="#333333" d="M677.06,193.716h-54.881v-40.724c0-1.664-0.661-3.258-1.837-4.434l-89.645-89.631
		c-1.176-1.175-2.77-1.836-4.434-1.836H300.73c-3.464,0-6.27,2.806-6.27,6.271v295.383h-97.888c-3.464,0-6.271,2.807-6.271,6.27
		v176.935c0,3.463,2.807,6.27,6.271,6.27h350.349c3.463,0,6.27-2.807,6.27-6.27v-42.157h62.719c3.462,0,6.27-2.807,6.27-6.271
		V296.887h54.881c9.27,0,16.812-7.542,16.812-16.813v-69.545C693.871,201.259,686.331,193.716,677.06,193.716z M532.536,78.498
		l68.234,68.225h-68.234V78.498z M540.651,535.678H202.843V371.284h337.808V535.678z M609.639,487.251h-56.448V365.014
		c0-3.463-2.807-6.27-6.27-6.27h-239.92V69.633h212.995v83.36c0,3.463,2.808,6.27,6.271,6.27h83.372v34.454h-69.76
		c-9.271,0-16.813,7.542-16.813,16.812v69.544c0,9.271,7.543,16.813,16.813,16.813h69.76V487.251z M681.331,280.074
		c0,2.356-1.916,4.272-4.271,4.272H539.879c-2.356,0-4.272-1.916-4.272-4.272v-69.545c0-2.356,1.916-4.272,4.272-4.272H677.06
		c2.355,0,4.271,1.917,4.271,4.272V280.074z"/>
	<path fill="#333333" d="M660.548,228.209h-40.582c-3.463,0-6.27,2.808-6.27,6.27c0,3.464,2.807,6.27,6.27,6.27h40.582
		c3.463,0,6.27-2.806,6.27-6.27C666.818,231.017,664.011,228.209,660.548,228.209z"/>
	<path fill="#333333" d="M660.548,249.851h-40.582c-3.463,0-6.27,2.808-6.27,6.271s2.807,6.27,6.27,6.27h40.582
		c3.463,0,6.27-2.807,6.27-6.27S664.011,249.851,660.548,249.851z"/>
	<path fill="#333333" d="M253.077,347.792c0.762,2.701,3.228,4.568,6.035,4.568c2.806,0,5.272-1.867,6.033-4.568l11.401-40.432
		c0.156-0.555,0.236-1.127,0.236-1.703V93.003c0-3.462-2.808-6.27-6.271-6.27h-22.801c-3.464,0-6.27,2.808-6.27,6.27v212.656
		c0,0.576,0.079,1.147,0.235,1.702L253.077,347.792z M255.995,311.929h6.235l-3.118,11.057L255.995,311.929z M264.243,99.273
		v200.116h-10.26V99.273H264.243z"/>
	<path fill="#333333" d="M196.573,352.361h22.801c3.462,0,6.27-2.807,6.27-6.271V133.436c0-0.576-0.079-1.148-0.236-1.702
		l-11.401-40.432c-0.762-2.703-3.227-4.569-6.034-4.569c-2.807,0-5.272,1.866-6.034,4.569l-11.4,40.432
		c-0.157,0.554-0.236,1.126-0.236,1.702v212.654C190.302,349.553,193.109,352.361,196.573,352.361z M202.843,339.821V139.706h10.261
		v200.115H202.843L202.843,339.821z M211.091,127.166h-6.236l3.118-11.057L211.091,127.166z"/>
</g>
</svg>
