<?xml version="1.0" encoding="utf-8"?>
<!-- Generator: Adobe Illustrator 16.0.0, SVG Export Plug-In . SVG Version: 6.00 Build 0)  -->
<!DOCTYPE svg PUBLIC "-//W3C//DTD SVG 1.1//EN" "http://www.w3.org/Graphics/SVG/1.1/DTD/svg11.dtd">
<svg version="1.1" id="Capa_1" xmlns="http://www.w3.org/2000/svg" xmlns:xlink="http://www.w3.org/1999/xlink" x="0px" y="0px"
	 width="841.889px" height="595.281px" viewBox="0 0 841.889 595.281" enable-background="new 0 0 841.889 595.281"
	 xml:space="preserve">
<g>
	<path fill="#333333" d="M590.998,518.153h-70.505c-2.544,0-4.623-2.075-4.623-4.623v-17.161c0-2.545-2.08-4.624-4.624-4.624
		h-98.656c-2.546,0-4.625,2.079-4.625,4.624v17.161c0,2.548-2.081,4.623-4.625,4.623h-53.005c-2.546,0-4.625,2.081-4.625,4.623
		v19.853c0,2.545,2.079,4.624,4.625,4.624h240.66c2.544,0,4.624-2.079,4.624-4.623v-19.854
		C595.622,520.237,593.543,518.153,590.998,518.153z"/>
	<g>
		<path fill="#333333" d="M709.456,53.974H206.343c-17.504,0-31.745,14.243-31.745,31.75c0,0,0,60.539,0,82.809
			c0,10.949-0.812,12.496,6.534,12.496c3.899,0,8.218,0,12.594,0c6.162,0,4.898-1.547,4.898-12.7c0-22.22,0-82.605,0-82.605
			c0-4.184,3.538-7.721,7.719-7.721h503.114c4.183,0,7.719,3.537,7.719,7.721v309.957H358.487c0,0-12.642-0.021-12.642,16.324
			c0,9.692,0,29.076,0,38.771c0,16.324,13.051,16.324,13.051,16.324h350.561c17.503,0,31.748-14.241,31.748-31.746V85.724
			C741.204,68.219,726.964,53.974,709.456,53.974z M457.901,439.688c-7.903,0-14.308-6.405-14.308-14.304
			s6.404-14.307,14.308-14.307c7.896,0,14.304,6.408,14.304,14.307S465.797,439.688,457.901,439.688z"/>
		<path fill="#333333" d="M296.872,209.386H114.868c-11.302,0-20.49,9.19-20.49,20.491v299.146c0,11.3,9.188,20.493,20.49,20.493
			h182.004c11.293,0,20.489-9.193,20.489-20.493V229.877C317.361,218.577,308.165,209.386,296.872,209.386z M183.419,230.285h44.901
			c2.141,0,3.882,1.734,3.882,3.884c0,2.144-1.74,3.881-3.882,3.881h-44.901c-2.144,0-3.881-1.737-3.881-3.881
			C179.537,232.019,181.275,230.285,183.419,230.285z M205.596,535.124c-5.855,0-10.603-4.747-10.603-10.604
			c0-5.854,4.748-10.603,10.603-10.603c5.858,0,10.604,4.748,10.604,10.603C216.2,530.377,211.454,535.124,205.596,535.124z
			 M299.758,503.959c0,2.734-2.191,4.969-4.863,4.969H116.849c-2.674,0-4.862-2.234-4.862-4.969v-248.58
			c0-2.734,2.191-4.969,4.862-4.969h178.045c2.675,0,4.863,2.237,4.863,4.969V503.959z"/>
	</g>
</g>
</svg>
