<?xml version="1.0" encoding="utf-8"?>
<!-- Generator: Adobe Illustrator 16.0.0, SVG Export Plug-In . SVG Version: 6.00 Build 0)  -->
<!DOCTYPE svg PUBLIC "-//W3C//DTD SVG 1.1//EN" "http://www.w3.org/Graphics/SVG/1.1/DTD/svg11.dtd">
<svg version="1.1" id="Capa_1" xmlns="http://www.w3.org/2000/svg" xmlns:xlink="http://www.w3.org/1999/xlink" x="0px" y="0px"
	 width="841.889px" height="595.281px" viewBox="0 0 841.889 595.281" enable-background="new 0 0 841.889 595.281"
	 xml:space="preserve">
<g>
	<path fill="#333333" d="M420.945,381.491c-7.211,0-13.051,5.848-13.051,13.059s5.841,13.061,13.051,13.061
		c7.214,0,13.06-5.85,13.06-13.061S428.158,381.491,420.945,381.491z"/>
	<path fill="#333333" d="M706.436,25.515H135.453c-6.71,0-12.148,5.439-12.148,12.148v397.813c0,6.708,5.438,12.148,12.148,12.148
		h212.249l-21.25,51.546h-39.945c-6.708,0-12.148,5.44-12.148,12.148v46.296c0,6.71,5.44,12.148,12.148,12.148h268.876
		c6.709,0,12.148-5.438,12.148-12.148V511.32c0-6.708-5.439-12.148-12.148-12.148H515.44l-21.251-51.546h212.247
		c6.709,0,12.148-5.44,12.148-12.148V37.664C718.584,30.954,713.145,25.515,706.436,25.515z M694.287,49.813v292.66H147.602V49.813
		H694.287z M543.235,545.468H298.656v-21.998h244.578V545.468z M489.157,499.172H352.733l21.251-51.546h93.923L489.157,499.172z
		 M147.602,423.328V366.77h546.686v56.558H147.602z"/>
	<path fill="#333333" d="M515.953,195.7L515.953,195.7L515.953,195.7c0-6.708-5.439-12.148-12.149-12.147l-12.955,0.002
		c-0.732-4.22-1.819-8.317-3.264-12.246l11.202-6.468c5.81-3.356,7.801-10.787,4.444-16.597s-10.784-7.803-16.595-4.444
		l-11.235,6.489c-2.713-3.242-5.708-6.238-8.951-8.952l6.49-11.233c3.356-5.81,1.366-13.241-4.443-16.597
		c-5.809-3.357-13.239-1.366-16.596,4.442l-6.469,11.201c-3.93-1.444-8.027-2.531-12.246-3.266v-12.949
		c0-6.709-5.439-12.148-12.148-12.148c-0.03,0-0.062,0.005-0.093,0.005s-0.062-0.005-0.092-0.005
		c-6.709,0-12.149,5.439-12.149,12.148v12.948c-4.219,0.733-8.316,1.82-12.245,3.266l-6.469-11.201
		c-3.357-5.81-10.787-7.801-16.597-4.442c-5.81,3.355-7.799,10.786-4.442,16.596l6.489,11.234c-3.242,2.714-6.238,5.71-8.951,8.952
		l-11.234-6.49c-5.811-3.357-13.238-1.364-16.595,4.445c-3.357,5.81-1.366,13.239,4.443,16.597l11.202,6.468
		c-1.444,3.929-2.53,8.026-3.263,12.245l-12.955-0.001c-6.71-0.001-12.15,5.439-12.15,12.147l0,0l0,0l0,0l0,0
		c0,6.71,5.44,12.148,12.15,12.148l12.955-0.001c0.731,4.218,1.818,8.315,3.263,12.244l-11.202,6.47
		c-5.81,3.356-7.801,10.785-4.443,16.596c3.356,5.809,10.784,7.802,16.595,4.444l11.234-6.49c2.713,3.244,5.709,6.24,8.951,8.952
		l-6.489,11.235c-3.356,5.81-1.367,13.239,4.442,16.595c5.81,3.358,13.239,1.367,16.597-4.441l6.469-11.202
		c3.929,1.444,8.026,2.533,12.245,3.266v12.948c0,6.709,5.44,12.148,12.149,12.148c0.03,0,0.062-0.005,0.092-0.005
		s0.062,0.005,0.093,0.005c6.709,0,12.148-5.439,12.148-12.148v-12.948c4.219-0.732,8.316-1.819,12.246-3.266l6.469,11.202
		c3.356,5.809,10.787,7.8,16.596,4.441c5.81-3.355,7.8-10.785,4.443-16.595l-6.49-11.235c3.243-2.712,6.238-5.708,8.951-8.952
		l11.235,6.49c5.811,3.357,13.239,1.364,16.595-4.444c3.356-5.811,1.365-13.239-4.444-16.596l-11.202-6.47
		c1.444-3.929,2.531-8.026,3.264-12.244l12.955,0.001C510.514,207.848,515.953,202.41,515.953,195.7L515.953,195.7L515.953,195.7z
		 M421.037,242.283c-0.031,0-0.062-0.003-0.093-0.003s-0.062,0.003-0.093,0.003c-25.683,0-46.577-20.896-46.577-46.583
		c0-25.686,20.895-46.582,46.577-46.582c0.031,0,0.062,0.002,0.093,0.002s0.062-0.002,0.093-0.002
		c25.683,0,46.577,20.896,46.577,46.582S446.72,242.283,421.037,242.283z"/>
</g>
</svg>
